<svg xmlns="http://www.w3.org/2000/svg" width="1000" height="600" viewBox="0 0 1000 600"><rect width="1000" height="350" fill="#99f6e4"/><circle cx="870" cy="85" r="52" fill="#fef08a"/><rect x="40" y="255" width="70" height="95" fill="#00000022"/><rect x="130" y="230" width="55" height="120" fill="#00000018"/><rect x="830" y="245" width="75" height="105" fill="#00000022"/><rect x="915" y="270" width="50" height="80" fill="#00000018"/><rect x="60" y="270" width="16" height="80" fill="#00000030"/><rect x="900" y="280" width="14" height="70" fill="#00000030"/><rect y="350" width="1000" height="250" fill="#404040"/><rect x="0" y="350" width="1000" height="14" fill="#e2e8f0"/><polygon points="462,350 538,350 860,600 140,600" fill="#33383f"/><polygon points="462,350 480,350 220,600 140,600" fill="#3f4550"/><polygon points="520,350 538,350 860,600 780,600" fill="#3f4550"/><line x1="462" y1="350" x2="140" y2="600" stroke="#f8fafc" stroke-width="3" opacity="0.7"/><line x1="538" y1="350" x2="860" y2="600" stroke="#f8fafc" stroke-width="3" opacity="0.7"/><rect x="497" y="358" width="6" height="14" fill="#facc15" opacity="0.85"/><rect x="493" y="400" width="14" height="26" fill="#facc15" opacity="0.85"/><rect x="486" y="452" width="28" height="40" fill="#facc15" opacity="0.85"/><rect x="474" y="518" width="52" height="58" fill="#facc15" opacity="0.85"/><rect x="485" y="400" width="30" height="180" fill="#171717"/><rect x="260" y="160" width="480" height="240" fill="#134e4a" stroke="#042f2e" stroke-width="6"/><text x="500" y="290" fill="#99f6e4" font-family="Arial" font-weight="900" font-size="44" text-anchor="middle">AD SPACE</text></svg>
